<svg width="24" height="24" viewBox="0 0 24 24" fill="none" xmlns="http://www.w3.org/2000/svg">
<path d="M11.4 3.45C11.7556 3.18333 12.2444 3.18333 12.6 3.45L22.2 10.65C22.6418 10.9814 22.7314 11.6082 22.4 12.05V12.05C22.0686 12.4918 21.4418 12.5814 21 12.25L20 11.5V19C20 20.1046 19.1046 21 18 21H6C4.89543 21 4 20.1046 4 19V11.5L3 12.25C2.55817 12.5814 1.93137 12.4918 1.6 12.05V12.05C1.26863 11.6082 1.35817 10.9814 1.8 10.65L11.4 3.45ZM7.35 13.05C7.35 13.9333 7.825 14.875 8.775 15.875C9.54564 16.6862 10.3985 17.5248 11.3337 18.3909C11.7099 18.7393 12.2901 18.7393 12.6663 18.3909C13.6015 17.5248 14.4544 16.6862 15.225 15.875C16.175 14.875 16.65 13.9333 16.65 13.05C16.65 12.3167 16.4 11.7083 15.9 11.225C15.4 10.7417 14.8 10.5 14.1 10.5C13.6667 10.5 13.2708 10.5875 12.9125 10.7625C12.9075 10.7649 12.9025 10.7674 12.8975 10.7699C12.3582 11.0367 11.6388 11.0391 11.0965 10.7786C11.0852 10.7732 11.0739 10.7678 11.0625 10.7625C10.6875 10.5875 10.3 10.5 9.9 10.5C9.2 10.5 8.6 10.7417 8.1 11.225C7.6 11.7083 7.35 12.3167 7.35 13.05Z" fill="black"/>
</svg>
